<svg id="Layer_1" data-name="Layer 1" xmlns="http://www.w3.org/2000/svg" viewBox="0 0 671.05176 99.56201"><defs><style>.cls-1,.cls-2,.cls-4{fill:#070e1c;}.cls-2{stroke:#070e1c;stroke-width:0.2517px;}.cls-3{fill:#c9f962;}.cls-4{font-size:75.08776px;font-family:SFProDisplay-Semibold, SF Pro Display;font-weight:600;letter-spacing:-0.02753em;}.cls-5{letter-spacing:-0.01093em;}.cls-6{letter-spacing:-0.01288em;}.cls-7{letter-spacing:-0.008em;}.cls-8{letter-spacing:-0.02753em;}.cls-9{letter-spacing:-0.02119em;}</style></defs><path class="cls-1" d="M113.313,209.361H103l17.108-19.666v-.479L103,169.63h10.472l13.191,15.029h.48l13.03-15.029h10.393l-17.108,19.426v.479l17.108,19.826H140.093l-13.19-15.189h-.56Z" transform="translate(296.05176 -145.36377)"/><path class="cls-1" d="M219.869,210.161c-11.192,0-16.628-7.435-16.628-16.628V169.63h8.554v21.584c0,7.435,3.438,11.192,11.832,11.192,8.793,0,12.87-4.477,12.87-13.11V169.63h8.554v39.731h-7.914V197.05h-.48C235.378,203.765,230.102,210.161,219.869,210.161Z" transform="translate(296.05176 -145.36377)"/><path class="cls-1" d="M261.529,209.361h-8.634V155.8h8.634Z" transform="translate(296.05176 -145.36377)"/><path class="cls-1" d="M295.585,209.361h-9.114c-8.554,0-13.83-3.757-13.83-13.43V176.825h-6.715V169.63h6.715v-8.714h8.554v8.714h14.39v7.195h-14.39v18.626c0,4.877,2.238,6.156,7.195,6.156h7.195Z" transform="translate(296.05176 -145.36377)"/><path class="cls-1" d="M319.772,210.161c-12.791,0-20.066-5.037-20.066-14.23v-.24h8.634v.64c0,5.196,3.118,6.875,11.432,6.875,7.754,0,10.072-1.599,10.072-5.117,0-3.277-1.918-4.317-7.594-5.116l-10.872-1.439c-7.515-.959-12.072-4.157-12.072-10.792,0-6.955,6.316-11.912,18.547-11.912,12.151,0,19.506,4.877,19.506,14.31v.24h-8.554v-.48c0-4.716-2.398-7.195-11.192-7.195-7.275,0-9.833,1.599-9.833,5.357,0,3.117,1.599,4.236,7.595,5.036l9.193,1.279c9.433,1.199,13.75,4.397,13.75,10.952C338.318,205.764,330.964,210.161,319.772,210.161Z" transform="translate(296.05176 -145.36377)"/><path class="cls-2" d="M187.716,178.867q.4185,1.0305.746,2.116v5.019a10.66392,10.66392,0,0,0-1.564-3.575,11.31848,11.31848,0,0,0-5.331-4.362,19.60531,19.60531,0,0,0-8.124-1.53q-6.669,0-10.399,3.552a12.10826,12.10826,0,0,0-3.717,9.285,12.74745,12.74745,0,0,0,1.777,6.781l.001.001a12.31912,12.31912,0,0,0,4.925,4.442h.002a16.35462,16.35462,0,0,0,7.411,1.613,19.31627,19.31627,0,0,0,8.207-1.611,12.279,12.279,0,0,0,5.329-4.523,11.52269,11.52269,0,0,0,1.509-3.58l.149,3.608c-.04.142-.082.285-.126.427a22.137,22.137,0,0,1-3.417,6.676,17.39234,17.39234,0,0,1-6.032,4.92,20.25472,20.25472,0,0,1-8.977,1.825,22.748,22.748,0,0,1-10.733-2.543,20.39792,20.39792,0,0,1-7.626-7.229,20.78027,20.78027,0,0,1-2.78-10.807,16.842,16.842,0,0,1,2.859-9.879,19.6439,19.6439,0,0,1,7.706-7.15h.001a23.32,23.32,0,0,1,11.133-2.623q6.85051,0,10.961,2.776h0l.003.002C184.431,174.308,186.452,175.762,187.716,178.867Zm.998,8.512v-5.502a29.52906,29.52906,0,0,1,.911,7.495,23.93407,23.93407,0,0,1-.769,5.925l-.142-3.431v-.598a14.28838,14.28838,0,0,0,.123-1.896A15.61361,15.61361,0,0,0,188.714,187.379Zm1.163,1.993a29.227,29.227,0,0,0-1.163-8.426V169.72h8.558v40.271h-7.808l-.573-13.857A24.55127,24.55127,0,0,0,189.877,189.372Z" transform="translate(296.05176 -145.36377)"/><path class="cls-3" d="M371.992,159.431,375,168.808l-11.559,2.949,7.254,8.846-7.962,5.779-6.487-10.143-6.428,10.084-7.903-5.72,7.49-9.023-11.323-2.949,3.008-9.318L352,163.559,351.233,152h9.849l-.825,12.09Z" transform="translate(296.05176 -145.36377)"/><text class="cls-4" transform="translate(0.00016 63.99718)">P<tspan class="cls-5" x="43.21289" y="0">o</tspan><tspan class="cls-6" x="84.26221" y="0">w</tspan><tspan class="cls-7" x="140.56396" y="0">e</tspan><tspan class="cls-8" x="180.47705" y="0">r</tspan><tspan class="cls-7" x="204.22119" y="0">ed </tspan><tspan class="cls-9" x="301.52148" y="0">b</tspan><tspan class="cls-7" x="343.59766" y="0">y</tspan></text></svg>